<svg width="190" height="119" viewBox="0 0 190 119" fill="none" xmlns="http://www.w3.org/2000/svg">
<path d="M0 95C2.20267e-06 69.8044 10.0089 45.6408 27.8249 27.8249C45.6408 10.0089 69.8044 2.70309e-06 95 0C120.196 -2.70309e-06 144.359 10.0089 162.175 27.8248C179.991 45.6408 190 69.8044 190 95L179.132 95C179.132 72.6868 170.268 51.2875 154.49 35.5097C138.712 19.7319 117.313 10.868 95 10.868C72.6868 10.868 51.2875 19.7319 35.5097 35.5097C19.7319 51.2875 10.868 72.6868 10.868 95H0Z" fill="white"/>
<path d="M120.059 3.36463C140.116 8.84943 157.819 20.763 170.453 37.2777C183.087 53.7924 189.954 73.9961 190 94.7891L179.132 94.8132C179.091 76.3989 173.01 58.5066 161.821 43.8812C150.632 29.2558 134.954 18.7051 117.192 13.8477L120.059 3.36463Z" fill="#AA913F"/>
<path d="M0 95C1.2574e-06 80.617 3.26584 66.4218 9.55122 53.4849C15.8366 40.548 24.9774 29.2071 36.2843 20.3175C47.5912 11.428 60.769 5.22189 74.8239 2.16723C88.8787 -0.887433 103.444 -0.710886 117.42 2.68355L114.855 13.2446C102.478 10.2384 89.579 10.0821 77.132 12.7873C64.685 15.4925 53.0148 20.9886 43.0014 28.8612C32.988 36.7338 24.8929 46.7773 19.3266 58.2342C13.7602 69.6911 10.868 82.2624 10.868 95H0Z" fill="#206247"/>
</svg>
