<svg width="44" height="44" viewBox="0 0 44 44" fill="none" xmlns="http://www.w3.org/2000/svg">
<path d="M31.1 17.87C31.68 17.23 32 16.4 32 15.53C32 13.58 30.42 12 28.47 12C27.6 12 26.78 12.32 26.14 12.9C24.85 12.3 23.46 12 22 12C20.57 12 19.15 12.31 17.87 12.9C17.23 12.32 16.4 12 15.53 12C13.58 12 12 13.58 12 15.53C12 16.4 12.32 17.23 12.9 17.87C12.31 19.15 12 20.57 12 22C12 23.46 12.3 24.85 12.9 26.14C12.32 26.78 12 27.6 12 28.47C12 30.42 13.58 32 15.53 32C16.4 32 17.23 31.68 17.87 31.1C19.15 31.69 20.57 32 22 32C23.46 32 24.85 31.7 26.14 31.1C26.78 31.68 27.6 32 28.47 32C30.42 32 32 30.42 32 28.47C32 27.6 31.68 26.78 31.1 26.14C31.7 24.85 32 23.46 32 22C32 20.57 31.69 19.15 31.1 17.87ZM29.68 25.17C29.57 25.13 29.46 25.09 29.35 25.06C29.18 25.02 29 24.99 28.83 24.97C28.71 24.96 28.59 24.95 28.47 24.95C26.53 24.95 24.95 26.53 24.95 28.47C24.95 28.59 24.96 28.71 24.97 28.83C24.99 29 25.02 29.18 25.06 29.35C25.09 29.46 25.13 29.57 25.17 29.68C25.17 29.71 25.18 29.74 25.2 29.77C25.21 29.8 25.22 29.83 25.23 29.86C23.22 30.7 20.82 30.71 18.77 29.86C18.78 29.83 18.79 29.8 18.8 29.77C18.82 29.74 18.83 29.71 18.83 29.68C18.87 29.57 18.91 29.46 18.94 29.35C18.98 29.18 19.01 29 19.03 28.83C19.04 28.71 19.05 28.59 19.05 28.47C19.05 26.53 17.47 24.95 15.53 24.95C15.41 24.95 15.29 24.96 15.17 24.97C15 24.99 14.82 25.02 14.65 25.06C14.54 25.09 14.43 25.13 14.32 25.17C14.29 25.17 14.26 25.18 14.23 25.2C14.2 25.21 14.17 25.22 14.14 25.23C13.71 24.22 13.5 23.13 13.5 22C13.5 20.89 13.72 19.78 14.14 18.77C14.15 18.77 14.17 18.78 14.18 18.78C14.06 18.73 13.93 18.67 13.82 18.61C13.66 18.52 13.5 18.42 13.35 18.3C13.65 18.53 13.97 18.71 14.32 18.83C14.44 18.88 14.57 18.92 14.69 18.95C14.77 18.97 14.84 18.98 14.91 18.99C15 19.01 15.08 19.02 15.17 19.03C15.29 19.04 15.41 19.05 15.53 19.05C17.47 19.05 19.05 17.47 19.05 15.53C19.05 15.41 19.04 15.29 19.03 15.17C19.02 15.08 19.01 15 18.99 14.91C18.98 14.84 18.97 14.77 18.95 14.69C18.92 14.57 18.88 14.44 18.83 14.32C18.71 13.97 18.53 13.65 18.3 13.35C18.42 13.5 18.52 13.66 18.61 13.82C18.67 13.93 18.73 14.06 18.78 14.18C18.78 14.17 18.77 14.15 18.77 14.14C20.81 13.29 23.22 13.3 25.23 14.14C25.22 14.17 25.21 14.2 25.2 14.23C25.18 14.26 25.17 14.29 25.17 14.32C25.13 14.43 25.09 14.54 25.06 14.65C25.02 14.82 24.99 15 24.97 15.17C24.96 15.29 24.95 15.41 24.95 15.53C24.95 17.47 26.53 19.05 28.47 19.05C28.59 19.05 28.71 19.04 28.83 19.03C29 19.01 29.18 18.98 29.35 18.94C29.46 18.91 29.57 18.87 29.68 18.83C29.71 18.83 29.74 18.82 29.77 18.8C29.8 18.79 29.83 18.78 29.86 18.77C30.28 19.78 30.5 20.89 30.5 22C30.5 23.13 30.29 24.22 29.86 25.23C29.83 25.22 29.8 25.21 29.77 25.2C29.74 25.18 29.71 25.17 29.68 25.17Z" fill="#848484"/>
</svg>
