<svg width="56" height="56" viewBox="0 0 56 56" fill="none" xmlns="http://www.w3.org/2000/svg">
<rect x="0.375" y="0.375" width="55.25" height="55.25" rx="27.625" fill="#E6F2EC"/>
<rect x="0.375" y="0.375" width="55.25" height="55.25" rx="27.625" stroke="#206247" stroke-width="0.75"/>
<path d="M40.1332 22.4937C40.9065 21.6403 41.3332 20.5337 41.3332 19.3737C41.3332 16.7737 39.2265 14.667 36.6265 14.667C35.4665 14.667 34.3732 15.0937 33.5198 15.867C31.7998 15.067 29.9465 14.667 27.9998 14.667C26.0932 14.667 24.1998 15.0803 22.4932 15.867C21.6398 15.0937 20.5332 14.667 19.3732 14.667C16.7732 14.667 14.6665 16.7737 14.6665 19.3737C14.6665 20.5337 15.0932 21.6403 15.8665 22.4937C15.0798 24.2003 14.6665 26.0937 14.6665 28.0003C14.6665 29.947 15.0665 31.8003 15.8665 33.5203C15.0932 34.3737 14.6665 35.467 14.6665 36.627C14.6665 39.227 16.7732 41.3337 19.3732 41.3337C20.5332 41.3337 21.6398 40.907 22.4932 40.1337C24.1998 40.9203 26.0932 41.3337 27.9998 41.3337C29.9465 41.3337 31.7998 40.9337 33.5198 40.1337C34.3732 40.907 35.4665 41.3337 36.6265 41.3337C39.2265 41.3337 41.3332 39.227 41.3332 36.627C41.3332 35.467 40.9065 34.3737 40.1332 33.5203C40.9332 31.8003 41.3332 29.947 41.3332 28.0003C41.3332 26.0937 40.9198 24.2003 40.1332 22.4937ZM38.2398 32.227C38.0932 32.1737 37.9465 32.1203 37.7998 32.0803C37.5732 32.027 37.3332 31.987 37.1065 31.9603C36.9465 31.947 36.7865 31.9337 36.6265 31.9337C34.0398 31.9337 31.9332 34.0403 31.9332 36.627C31.9332 36.787 31.9465 36.947 31.9598 37.107C31.9865 37.3337 32.0265 37.5737 32.0798 37.8003C32.1198 37.947 32.1732 38.0937 32.2265 38.2403C32.2265 38.2803 32.2398 38.3203 32.2665 38.3603C32.2798 38.4003 32.2932 38.4403 32.3065 38.4803C29.6265 39.6003 26.4265 39.6137 23.6932 38.4803C23.7065 38.4403 23.7198 38.4003 23.7332 38.3603C23.7598 38.3203 23.7732 38.2803 23.7732 38.2403C23.8265 38.0937 23.8798 37.947 23.9198 37.8003C23.9732 37.5737 24.0132 37.3337 24.0398 37.107C24.0532 36.947 24.0665 36.787 24.0665 36.627C24.0665 34.0403 21.9598 31.9337 19.3732 31.9337C19.2132 31.9337 19.0532 31.947 18.8932 31.9603C18.6665 31.987 18.4265 32.027 18.1998 32.0803C18.0532 32.1203 17.9065 32.1737 17.7598 32.227C17.7198 32.227 17.6798 32.2403 17.6398 32.267C17.5998 32.2803 17.5598 32.2937 17.5198 32.307C16.9465 30.9603 16.6665 29.507 16.6665 28.0003C16.6665 26.5203 16.9598 25.0403 17.5198 23.6937C17.5332 23.6937 17.5598 23.707 17.5732 23.707C17.4132 23.6403 17.2398 23.5603 17.0932 23.4803C16.8798 23.3603 16.6665 23.227 16.4665 23.067C16.8665 23.3737 17.2932 23.6137 17.7598 23.7737C17.9198 23.8403 18.0932 23.8937 18.2532 23.9337C18.3598 23.9603 18.4532 23.9737 18.5465 23.987C18.6665 24.0137 18.7732 24.027 18.8932 24.0403C19.0532 24.0537 19.2132 24.067 19.3732 24.067C21.9598 24.067 24.0665 21.9603 24.0665 19.3737C24.0665 19.2137 24.0532 19.0537 24.0398 18.8937C24.0265 18.7737 24.0132 18.667 23.9865 18.547C23.9732 18.4537 23.9598 18.3603 23.9332 18.2537C23.8932 18.0937 23.8398 17.9203 23.7732 17.7603C23.6132 17.2937 23.3732 16.867 23.0665 16.467C23.2265 16.667 23.3598 16.8803 23.4798 17.0937C23.5598 17.2403 23.6398 17.4137 23.7065 17.5737C23.7065 17.5603 23.6932 17.5337 23.6932 17.5203C26.4132 16.387 29.6265 16.4003 32.3065 17.5203C32.2932 17.5603 32.2798 17.6003 32.2665 17.6403C32.2398 17.6803 32.2265 17.7203 32.2265 17.7603C32.1732 17.907 32.1198 18.0537 32.0798 18.2003C32.0265 18.427 31.9865 18.667 31.9598 18.8937C31.9465 19.0537 31.9332 19.2137 31.9332 19.3737C31.9332 21.9603 34.0398 24.067 36.6265 24.067C36.7865 24.067 36.9465 24.0537 37.1065 24.0403C37.3332 24.0137 37.5732 23.9737 37.7998 23.9203C37.9465 23.8803 38.0932 23.827 38.2398 23.7737C38.2798 23.7737 38.3198 23.7603 38.3598 23.7337C38.3998 23.7203 38.4398 23.707 38.4798 23.6937C39.0398 25.0403 39.3332 26.5203 39.3332 28.0003C39.3332 29.507 39.0532 30.9603 38.4798 32.307C38.4398 32.2937 38.3998 32.2803 38.3598 32.267C38.3198 32.2403 38.2798 32.227 38.2398 32.227Z" fill="#206247"/>
</svg>
