<svg width="20" height="21" viewBox="0 0 20 21" fill="none" xmlns="http://www.w3.org/2000/svg">
<path d="M17.5834 7.05866C18.0667 6.52533 18.3334 5.83366 18.3334 5.10866C18.3334 3.48366 17.0167 2.16699 15.3917 2.16699C14.6667 2.16699 13.9834 2.43366 13.4501 2.91699C12.3751 2.41699 11.2167 2.16699 10.0001 2.16699C8.80841 2.16699 7.62508 2.42533 6.55841 2.91699C6.02508 2.43366 5.33342 2.16699 4.60842 2.16699C2.98341 2.16699 1.66675 3.48366 1.66675 5.10866C1.66675 5.83366 1.93341 6.52533 2.41675 7.05866C1.92508 8.12533 1.66675 9.30866 1.66675 10.5003C1.66675 11.717 1.91675 12.8753 2.41675 13.9503C1.93341 14.4837 1.66675 15.167 1.66675 15.892C1.66675 17.517 2.98341 18.8337 4.60842 18.8337C5.33342 18.8337 6.02508 18.567 6.55841 18.0837C7.62508 18.5753 8.80841 18.8337 10.0001 18.8337C11.2167 18.8337 12.3751 18.5837 13.4501 18.0837C13.9834 18.567 14.6667 18.8337 15.3917 18.8337C17.0167 18.8337 18.3334 17.517 18.3334 15.892C18.3334 15.167 18.0667 14.4837 17.5834 13.9503C18.0834 12.8753 18.3334 11.717 18.3334 10.5003C18.3334 9.30866 18.0751 8.12533 17.5834 7.05866ZM16.4001 13.142C16.3084 13.1087 16.2167 13.0753 16.1251 13.0503C15.9834 13.017 15.8334 12.992 15.6917 12.9753C15.5917 12.967 15.4917 12.9587 15.3917 12.9587C13.7751 12.9587 12.4584 14.2753 12.4584 15.892C12.4584 15.992 12.4667 16.092 12.4751 16.192C12.4917 16.3337 12.5167 16.4837 12.5501 16.6253C12.5751 16.717 12.6084 16.8087 12.6417 16.9003C12.6417 16.9253 12.6501 16.9503 12.6667 16.9753C12.6751 17.0003 12.6834 17.0253 12.6917 17.0503C11.0167 17.7503 9.01675 17.7587 7.30842 17.0503C7.31675 17.0253 7.32508 17.0003 7.33342 16.9753C7.35008 16.9503 7.35842 16.9253 7.35842 16.9003C7.39175 16.8087 7.42508 16.717 7.45008 16.6253C7.48341 16.4837 7.50841 16.3337 7.52508 16.192C7.53341 16.092 7.54175 15.992 7.54175 15.892C7.54175 14.2753 6.22508 12.9587 4.60842 12.9587C4.50841 12.9587 4.40841 12.967 4.30841 12.9753C4.16675 12.992 4.01675 13.017 3.87508 13.0503C3.78341 13.0753 3.69175 13.1087 3.60008 13.142C3.57508 13.142 3.55008 13.1503 3.52508 13.167C3.50008 13.1753 3.47508 13.1837 3.45008 13.192C3.09175 12.3503 2.91675 11.442 2.91675 10.5003C2.91675 9.57533 3.10008 8.65033 3.45008 7.80866C3.45841 7.80866 3.47508 7.81699 3.48341 7.81699C3.38341 7.77533 3.27508 7.72533 3.18341 7.67533C3.05008 7.60033 2.91675 7.51699 2.79175 7.41699C3.04175 7.60866 3.30841 7.75866 3.60008 7.85866C3.70008 7.90033 3.80841 7.93366 3.90841 7.95866C3.97508 7.97533 4.03341 7.98366 4.09175 7.99199C4.16675 8.00866 4.23341 8.01699 4.30841 8.02533C4.40841 8.03366 4.50841 8.04199 4.60842 8.04199C6.22508 8.04199 7.54175 6.72533 7.54175 5.10866C7.54175 5.00866 7.53341 4.90866 7.52508 4.80866C7.51675 4.73366 7.50841 4.66699 7.49175 4.59199C7.48341 4.53366 7.47508 4.47533 7.45842 4.40866C7.43341 4.30866 7.40008 4.20033 7.35842 4.10033C7.25841 3.80866 7.10842 3.54199 6.91675 3.29199C7.01675 3.41699 7.10008 3.55033 7.17508 3.68366C7.22508 3.77533 7.27508 3.88366 7.31675 3.98366C7.31675 3.97533 7.30842 3.95866 7.30842 3.95033C9.00842 3.24199 11.0167 3.25033 12.6917 3.95033C12.6834 3.97533 12.6751 4.00033 12.6667 4.02533C12.6501 4.05033 12.6417 4.07533 12.6417 4.10033C12.6084 4.19199 12.5751 4.28366 12.5501 4.37533C12.5167 4.51699 12.4917 4.66699 12.4751 4.80866C12.4667 4.90866 12.4584 5.00866 12.4584 5.10866C12.4584 6.72533 13.7751 8.04199 15.3917 8.04199C15.4917 8.04199 15.5917 8.03366 15.6917 8.02533C15.8334 8.00866 15.9834 7.98366 16.1251 7.95033C16.2167 7.92533 16.3084 7.89199 16.4001 7.85866C16.4251 7.85866 16.4501 7.85033 16.4751 7.83366C16.5001 7.82533 16.5251 7.81699 16.5501 7.80866C16.9001 8.65033 17.0834 9.57533 17.0834 10.5003C17.0834 11.442 16.9084 12.3503 16.5501 13.192C16.5251 13.1837 16.5001 13.1753 16.4751 13.167C16.4501 13.1503 16.4251 13.142 16.4001 13.142Z" fill="#206247"/>
</svg>
