<svg width="56" height="56" viewBox="0 0 56 56" fill="none" xmlns="http://www.w3.org/2000/svg">
<rect x="0.375" y="0.375" width="55.25" height="55.25" rx="27.625" fill="#E6F2EC"/>
<rect x="0.375" y="0.375" width="55.25" height="55.25" rx="27.625" stroke="#206247" stroke-width="0.75"/>
<path d="M31.1333 14.667H24.8667C23.48 14.667 22.3467 15.787 22.3467 17.1737V18.427C22.3467 19.8137 23.4667 20.9337 24.8533 20.9337H31.1333C32.52 20.9337 33.64 19.8137 33.64 18.427V17.1737C33.6533 15.787 32.52 14.667 31.1333 14.667Z" fill="#206247"/>
<path d="M34.9867 18.4266C34.9867 20.5466 33.2534 22.28 31.1334 22.28H24.8667C22.7467 22.28 21.0134 20.5466 21.0134 18.4266C21.0134 17.68 20.2134 17.2133 19.5467 17.56C17.6667 18.56 16.3867 20.5466 16.3867 22.8266V35.3733C16.3867 38.6533 19.0667 41.3333 22.3467 41.3333H33.6534C36.9334 41.3333 39.6134 38.6533 39.6134 35.3733V22.8266C39.6134 20.5466 38.3334 18.56 36.4534 17.56C35.7867 17.2133 34.9867 17.68 34.9867 18.4266ZM28.5067 34.6H22.6667C22.1201 34.6 21.6667 34.1466 21.6667 33.6C21.6667 33.0533 22.1201 32.6 22.6667 32.6H28.5067C29.0534 32.6 29.5067 33.0533 29.5067 33.6C29.5067 34.1466 29.0534 34.6 28.5067 34.6ZM32.0001 29.2666H22.6667C22.1201 29.2666 21.6667 28.8133 21.6667 28.2666C21.6667 27.72 22.1201 27.2666 22.6667 27.2666H32.0001C32.5467 27.2666 33.0001 27.72 33.0001 28.2666C33.0001 28.8133 32.5467 29.2666 32.0001 29.2666Z" fill="#206247"/>
</svg>
