<svg width="20" height="21" viewBox="0 0 20 21" fill="none" xmlns="http://www.w3.org/2000/svg">
<path d="M15.5583 2.16699H13.975C12.1583 2.16699 11.2 3.12533 11.2 4.94199V6.52533C11.2 8.34199 12.1583 9.30033 13.975 9.30033H15.5583C17.375 9.30033 18.3333 8.34199 18.3333 6.52533V4.94199C18.3333 3.12533 17.375 2.16699 15.5583 2.16699Z" fill="#206247"/>
<path d="M6.03341 11.6914H4.45008C2.62508 11.6914 1.66675 12.6497 1.66675 14.4664V16.0497C1.66675 17.8747 2.62508 18.8331 4.44175 18.8331H6.02508C7.84175 18.8331 8.80008 17.8747 8.80008 16.0581V14.4747C8.80842 12.6497 7.85008 11.6914 6.03341 11.6914Z" fill="#206247"/>
<path d="M5.24175 9.31699C7.21617 9.31699 8.81675 7.71641 8.81675 5.74199C8.81675 3.76757 7.21617 2.16699 5.24175 2.16699C3.26733 2.16699 1.66675 3.76757 1.66675 5.74199C1.66675 7.71641 3.26733 9.31699 5.24175 9.31699Z" fill="#206247"/>
<path d="M14.7583 18.8336C16.7328 18.8336 18.3334 17.233 18.3334 15.2586C18.3334 13.2842 16.7328 11.6836 14.7583 11.6836C12.7839 11.6836 11.1833 13.2842 11.1833 15.2586C11.1833 17.233 12.7839 18.8336 14.7583 18.8336Z" fill="#206247"/>
</svg>
