<svg width="44" height="44" viewBox="0 0 44 44" fill="none" xmlns="http://www.w3.org/2000/svg">
<path d="M32 12.75H12C11.59 12.75 11.25 12.41 11.25 12C11.25 11.59 11.59 11.25 12 11.25H32C32.41 11.25 32.75 11.59 32.75 12C32.75 12.41 32.41 12.75 32 12.75Z" fill="#848484"/>
<path d="M26.6698 32.34C26.5398 32.6 26.2698 32.75 25.9998 32.75C25.8898 32.75 25.7698 32.72 25.6698 32.67L21.9998 30.84L18.3298 32.67C18.2298 32.72 18.1098 32.75 17.9998 32.75C17.7298 32.75 17.4598 32.6 17.3298 32.34C17.1398 31.96 17.2898 31.51 17.6698 31.33L21.2498 29.54V27H22.7498V29.54L26.3298 31.33C26.7098 31.51 26.8598 31.96 26.6698 32.34Z" fill="#848484"/>
<path d="M13 12V24.1C13 26 14 27 15.9 27H28.1C30 27 31 26 31 24.1V12H13ZM26.98 18.58L23.83 21.21C23.54 21.45 23.17 21.55 22.82 21.49C22.46 21.43 22.15 21.21 21.96 20.89L20.91 19.14L17.98 21.58C17.84 21.7 17.67 21.75 17.5 21.75C17.29 21.75 17.07 21.66 16.92 21.48C16.65 21.16 16.7 20.69 17.02 20.42L20.17 17.79C20.46 17.55 20.83 17.45 21.18 17.51C21.54 17.57 21.85 17.79 22.04 18.11L23.09 19.86L26.02 17.42C26.34 17.15 26.81 17.2 27.08 17.52C27.34 17.84 27.3 18.31 26.98 18.58Z" fill="#848484"/>
</svg>
