<svg width="20" height="21" viewBox="0 0 20 21" fill="none" xmlns="http://www.w3.org/2000/svg">
<path d="M18.3334 2.79199H1.66675C1.32508 2.79199 1.04175 2.50866 1.04175 2.16699C1.04175 1.82533 1.32508 1.54199 1.66675 1.54199H18.3334C18.6751 1.54199 18.9584 1.82533 18.9584 2.16699C18.9584 2.50866 18.6751 2.79199 18.3334 2.79199Z" fill="#206247"/>
<path d="M13.8916 19.117C13.7833 19.3337 13.5583 19.4587 13.3333 19.4587C13.2416 19.4587 13.1416 19.4337 13.0583 19.392L9.99997 17.867L6.94164 19.392C6.8583 19.4337 6.7583 19.4587 6.66664 19.4587C6.44164 19.4587 6.21664 19.3337 6.1083 19.117C5.94997 18.8003 6.07497 18.4253 6.39164 18.2753L9.37497 16.7837V14.667H10.625V16.7837L13.6083 18.2753C13.925 18.4253 14.05 18.8003 13.8916 19.117Z" fill="#206247"/>
<path d="M2.5 2.16699V12.2503C2.5 13.8337 3.33333 14.667 4.91667 14.667H15.0833C16.6667 14.667 17.5 13.8337 17.5 12.2503V2.16699H2.5ZM14.15 7.65033L11.525 9.84199C11.2833 10.042 10.975 10.1253 10.6833 10.0753C10.3833 10.0253 10.125 9.84199 9.96667 9.57533L9.09167 8.11699L6.65 10.1503C6.53333 10.2503 6.39167 10.292 6.25 10.292C6.075 10.292 5.89167 10.217 5.76667 10.067C5.54167 9.80032 5.58333 9.40866 5.85 9.18366L8.475 6.99199C8.71667 6.79199 9.025 6.70866 9.31667 6.75866C9.61667 6.80866 9.875 6.99199 10.0333 7.25866L10.9083 8.71699L13.35 6.68366C13.6167 6.45866 14.0083 6.50033 14.2333 6.76699C14.45 7.03366 14.4167 7.42533 14.15 7.65033Z" fill="#206247"/>
</svg>
