<svg width="56" height="56" viewBox="0 0 56 56" fill="none" xmlns="http://www.w3.org/2000/svg">
<rect x="0.375" y="0.375" width="55.25" height="55.25" rx="27.625" fill="#E6F2EC"/>
<rect x="0.375" y="0.375" width="55.25" height="55.25" rx="27.625" stroke="#206247" stroke-width="0.75"/>
<path d="M41.3332 15.667H14.6665C14.1198 15.667 13.6665 15.2137 13.6665 14.667C13.6665 14.1203 14.1198 13.667 14.6665 13.667H41.3332C41.8798 13.667 42.3332 14.1203 42.3332 14.667C42.3332 15.2137 41.8798 15.667 41.3332 15.667Z" fill="#206247"/>
<path d="M34.2265 41.787C34.0532 42.1337 33.6932 42.3337 33.3332 42.3337C33.1865 42.3337 33.0265 42.2937 32.8932 42.227L27.9999 39.787L23.1065 42.227C22.9732 42.2937 22.8132 42.3337 22.6665 42.3337C22.3065 42.3337 21.9465 42.1337 21.7732 41.787C21.5199 41.2803 21.7199 40.6803 22.2265 40.4403L26.9999 38.0537V34.667H28.9999V38.0537L33.7732 40.4403C34.2799 40.6803 34.4799 41.2803 34.2265 41.787Z" fill="#206247"/>
<path d="M16 14.667V30.8003C16 33.3337 17.3333 34.667 19.8667 34.667H36.1333C38.6667 34.667 40 33.3337 40 30.8003V14.667H16ZM34.64 23.4403L30.44 26.947C30.0533 27.267 29.56 27.4003 29.0933 27.3203C28.6133 27.2403 28.2 26.947 27.9467 26.5203L26.5467 24.187L22.64 27.4403C22.4533 27.6003 22.2267 27.667 22 27.667C21.72 27.667 21.4267 27.547 21.2267 27.307C20.8667 26.8803 20.9333 26.2537 21.36 25.8937L25.56 22.387C25.9467 22.067 26.44 21.9337 26.9067 22.0137C27.3867 22.0937 27.8 22.387 28.0533 22.8137L29.4533 25.147L33.36 21.8937C33.7867 21.5337 34.4133 21.6003 34.7733 22.027C35.12 22.4537 35.0667 23.0803 34.64 23.4403Z" fill="#206247"/>
</svg>
