<svg width="46" height="46" viewBox="0 0 46 46" fill="none" xmlns="http://www.w3.org/2000/svg">
<rect x="0.375" y="0.375" width="45.25" height="45.25" rx="22.625" fill="#E6E6E6"/>
<rect x="0.375" y="0.375" width="45.25" height="45.25" rx="22.625" stroke="#848484" stroke-width="0.75"/>
<g clip-path="url(#clip0_711_5237)">
<path d="M29.6668 31.333H16.3335V29.6663C16.3335 28.5613 16.7725 27.5015 17.5539 26.7201C18.3353 25.9387 19.3951 25.4997 20.5002 25.4997H25.5002C26.6052 25.4997 27.665 25.9387 28.4464 26.7201C29.2278 27.5015 29.6668 28.5613 29.6668 29.6663V31.333ZM23.0002 23.833C22.3436 23.833 21.6934 23.7037 21.0867 23.4524C20.4801 23.2011 19.9289 22.8328 19.4646 22.3685C19.0003 21.9042 18.632 21.3531 18.3808 20.7464C18.1295 20.1398 18.0002 19.4896 18.0002 18.833C18.0002 18.1764 18.1295 17.5262 18.3808 16.9196C18.632 16.313 19.0003 15.7618 19.4646 15.2975C19.9289 14.8332 20.4801 14.4649 21.0867 14.2136C21.6934 13.9623 22.3436 13.833 23.0002 13.833C24.3262 13.833 25.598 14.3598 26.5357 15.2975C27.4734 16.2352 28.0002 17.5069 28.0002 18.833C28.0002 20.1591 27.4734 21.4309 26.5357 22.3685C25.598 23.3062 24.3262 23.833 23.0002 23.833Z" fill="#848484"/>
</g>
<defs>
<clipPath id="clip0_711_5237">
<rect width="20" height="20" fill="white" transform="translate(13 13)"/>
</clipPath>
</defs>
</svg>
