<svg width="20" height="21" viewBox="0 0 20 21" fill="none" xmlns="http://www.w3.org/2000/svg">
<path d="M18.3334 18.833H1.66675C1.32508 18.833 1.04175 18.5497 1.04175 18.208C1.04175 17.8663 1.32508 17.583 1.66675 17.583H18.3334C18.6751 17.583 18.9584 17.8663 18.9584 18.208C18.9584 18.5497 18.6751 18.833 18.3334 18.833Z" fill="#206247"/>
<path d="M8.125 3.83366V18.8337H11.875V3.83366C11.875 2.91699 11.5 2.16699 10.375 2.16699H9.625C8.5 2.16699 8.125 2.91699 8.125 3.83366Z" fill="#206247"/>
<path d="M2.5 8.83366V18.8337H5.83333V8.83366C5.83333 7.91699 5.5 7.16699 4.5 7.16699H3.83333C2.83333 7.16699 2.5 7.91699 2.5 8.83366Z" fill="#206247"/>
<path d="M14.1667 12.9997V18.833H17.5001V12.9997C17.5001 12.083 17.1667 11.333 16.1667 11.333H15.5001C14.5001 11.333 14.1667 12.083 14.1667 12.9997Z" fill="#206247"/>
</svg>
