<svg width="44" height="44" viewBox="0 0 44 44" fill="none" xmlns="http://www.w3.org/2000/svg">
<path d="M32 32H12C11.59 32 11.25 31.66 11.25 31.25C11.25 30.84 11.59 30.5 12 30.5H32C32.41 30.5 32.75 30.84 32.75 31.25C32.75 31.66 32.41 32 32 32Z" fill="#848484"/>
<path d="M19.75 14V32H24.25V14C24.25 12.9 23.8 12 22.45 12H21.55C20.2 12 19.75 12.9 19.75 14Z" fill="#848484"/>
<path d="M13 20V32H17V20C17 18.9 16.6 18 15.4 18H14.6C13.4 18 13 18.9 13 20Z" fill="#848484"/>
<path d="M27 25V32H31V25C31 23.9 30.6 23 29.4 23H28.6C27.4 23 27 23.9 27 25Z" fill="#848484"/>
</svg>
