<svg width="56" height="56" viewBox="0 0 56 56" fill="none" xmlns="http://www.w3.org/2000/svg">
<rect x="0.375" y="0.375" width="55.25" height="55.25" rx="27.625" fill="#E6F2EC"/>
<rect x="0.375" y="0.375" width="55.25" height="55.25" rx="27.625" stroke="#206247" stroke-width="0.75"/>
<path d="M41.3332 41.333H14.6665C14.1198 41.333 13.6665 40.8797 13.6665 40.333C13.6665 39.7863 14.1198 39.333 14.6665 39.333H41.3332C41.8798 39.333 42.3332 39.7863 42.3332 40.333C42.3332 40.8797 41.8798 41.333 41.3332 41.333Z" fill="#206247"/>
<path d="M25 17.3337V41.3337H31V17.3337C31 15.867 30.4 14.667 28.6 14.667H27.4C25.6 14.667 25 15.867 25 17.3337Z" fill="#206247"/>
<path d="M16 25.3337V41.3337H21.3333V25.3337C21.3333 23.867 20.8 22.667 19.2 22.667H18.1333C16.5333 22.667 16 23.867 16 25.3337Z" fill="#206247"/>
<path d="M34.6665 31.9997V41.333H39.9998V31.9997C39.9998 30.533 39.4665 29.333 37.8665 29.333H36.7998C35.1998 29.333 34.6665 30.533 34.6665 31.9997Z" fill="#206247"/>
</svg>
