<svg width="44" height="44" viewBox="0 0 44 44" fill="none" xmlns="http://www.w3.org/2000/svg">
<path d="M29.3702 14.8901L23.5102 12.2801C22.6502 11.9001 21.3502 11.9001 20.4902 12.2801L14.6302 14.8901C13.1502 15.5501 12.9302 16.4501 12.9302 16.9301C12.9302 17.4101 13.1502 18.3101 14.6302 18.9701L20.4902 21.5801C20.9202 21.7701 21.4602 21.8701 22.0002 21.8701C22.5402 21.8701 23.0802 21.7701 23.5102 21.5801L29.3702 18.9701C30.8502 18.3101 31.0702 17.4101 31.0702 16.9301C31.0702 16.4501 30.8602 15.5501 29.3702 14.8901Z" fill="#848484"/>
<path d="M21.9998 27.04C21.6198 27.04 21.2398 26.96 20.8898 26.81L14.1498 23.81C13.1198 23.35 12.3198 22.12 12.3198 20.99C12.3198 20.58 12.6498 20.25 13.0598 20.25C13.4698 20.25 13.7998 20.58 13.7998 20.99C13.7998 21.53 14.2498 22.23 14.7498 22.45L21.4898 25.45C21.8098 25.59 22.1798 25.59 22.4998 25.45L29.2398 22.45C29.7398 22.23 30.1898 21.54 30.1898 20.99C30.1898 20.58 30.5198 20.25 30.9298 20.25C31.3398 20.25 31.6698 20.58 31.6698 20.99C31.6698 22.11 30.8698 23.35 29.8398 23.81L23.0998 26.81C22.7598 26.96 22.3798 27.04 21.9998 27.04Z" fill="#848484"/>
<path d="M21.9998 32C21.6198 32 21.2398 31.92 20.8898 31.77L14.1498 28.77C13.0398 28.28 12.3198 27.17 12.3198 25.95C12.3198 25.54 12.6498 25.21 13.0598 25.21C13.4698 25.21 13.7998 25.54 13.7998 25.95C13.7998 26.58 14.1698 27.15 14.7498 27.41L21.4898 30.41C21.8098 30.55 22.1798 30.55 22.4998 30.41L29.2398 27.41C29.8098 27.16 30.1898 26.58 30.1898 25.95C30.1898 25.54 30.5198 25.21 30.9298 25.21C31.3398 25.21 31.6698 25.54 31.6698 25.95C31.6698 27.17 30.9498 28.27 29.8398 28.77L23.0998 31.77C22.7598 31.92 22.3798 32 21.9998 32Z" fill="#848484"/>
</svg>
