<svg width="20" height="21" viewBox="0 0 20 21" fill="none" xmlns="http://www.w3.org/2000/svg">
<path d="M16.1417 4.57461L11.2583 2.39961C10.5416 2.08294 9.45832 2.08294 8.74165 2.39961L3.85832 4.57461C2.62498 5.12461 2.44165 5.87461 2.44165 6.27461C2.44165 6.67461 2.62498 7.42461 3.85832 7.97461L8.74165 10.1496C9.09998 10.3079 9.54998 10.3913 9.99998 10.3913C10.45 10.3913 10.9 10.3079 11.2583 10.1496L16.1417 7.97461C17.375 7.42461 17.5583 6.67461 17.5583 6.27461C17.5583 5.87461 17.3833 5.12461 16.1417 4.57461Z" fill="#206247"/>
<path d="M10 14.7003C9.68335 14.7003 9.36668 14.6337 9.07502 14.5087L3.45835 12.0087C2.60002 11.6253 1.93335 10.6003 1.93335 9.65866C1.93335 9.31699 2.20835 9.04199 2.55002 9.04199C2.89168 9.04199 3.16668 9.31699 3.16668 9.65866C3.16668 10.1087 3.54168 10.692 3.95835 10.8753L9.57502 13.3753C9.84168 13.492 10.15 13.492 10.4167 13.3753L16.0334 10.8753C16.45 10.692 16.825 10.117 16.825 9.65866C16.825 9.31699 17.1 9.04199 17.4417 9.04199C17.7834 9.04199 18.0584 9.31699 18.0584 9.65866C18.0584 10.592 17.3917 11.6253 16.5334 12.0087L10.9167 14.5087C10.6334 14.6337 10.3167 14.7003 10 14.7003Z" fill="#206247"/>
<path d="M10 18.8331C9.68335 18.8331 9.36668 18.7665 9.07502 18.6415L3.45835 16.1415C2.53335 15.7331 1.93335 14.8081 1.93335 13.7915C1.93335 13.4498 2.20835 13.1748 2.55002 13.1748C2.89168 13.1748 3.16668 13.4498 3.16668 13.7915C3.16668 14.3165 3.47502 14.7915 3.95835 15.0081L9.57502 17.5081C9.84168 17.6248 10.15 17.6248 10.4167 17.5081L16.0334 15.0081C16.5084 14.7998 16.825 14.3165 16.825 13.7915C16.825 13.4498 17.1 13.1748 17.4417 13.1748C17.7834 13.1748 18.0584 13.4498 18.0584 13.7915C18.0584 14.8081 17.4584 15.7248 16.5334 16.1415L10.9167 18.6415C10.6334 18.7665 10.3167 18.8331 10 18.8331Z" fill="#206247"/>
</svg>
