<svg width="56" height="56" viewBox="0 0 56 56" fill="none" xmlns="http://www.w3.org/2000/svg">
<rect x="0.375" y="0.375" width="55.25" height="55.25" rx="27.625" fill="#E6F2EC"/>
<rect x="0.375" y="0.375" width="55.25" height="55.25" rx="27.625" stroke="#206247" stroke-width="0.75"/>
<path d="M37.8267 18.5202L30.0134 15.0402C28.8667 14.5335 27.1334 14.5335 25.9867 15.0402L18.1734 18.5202C16.2001 19.4002 15.9067 20.6002 15.9067 21.2402C15.9067 21.8802 16.2001 23.0802 18.1734 23.9602L25.9867 27.4402C26.5601 27.6935 27.2801 27.8268 28.0001 27.8268C28.7201 27.8268 29.4401 27.6935 30.0134 27.4402L37.8267 23.9602C39.8001 23.0802 40.0934 21.8802 40.0934 21.2402C40.0934 20.6002 39.8134 19.4002 37.8267 18.5202Z" fill="#206247"/>
<path d="M27.9999 34.7203C27.4933 34.7203 26.9866 34.6137 26.5199 34.4137L17.5333 30.4137C16.1599 29.8003 15.0933 28.1603 15.0933 26.6537C15.0933 26.107 15.5333 25.667 16.0799 25.667C16.6266 25.667 17.0666 26.107 17.0666 26.6537C17.0666 27.3737 17.6666 28.307 18.3333 28.6003L27.3199 32.6003C27.7466 32.787 28.2399 32.787 28.6666 32.6003L37.6533 28.6003C38.3199 28.307 38.9199 27.387 38.9199 26.6537C38.9199 26.107 39.3599 25.667 39.9066 25.667C40.4533 25.667 40.8933 26.107 40.8933 26.6537C40.8933 28.147 39.8266 29.8003 38.4533 30.4137L29.4666 34.4137C29.0133 34.6137 28.5066 34.7203 27.9999 34.7203Z" fill="#206247"/>
<path d="M27.9999 41.3336C27.4933 41.3336 26.9866 41.2269 26.5199 41.0269L17.5333 37.0269C16.0533 36.3736 15.0933 34.8936 15.0933 33.2669C15.0933 32.7203 15.5333 32.2803 16.0799 32.2803C16.6266 32.2803 17.0666 32.7203 17.0666 33.2669C17.0666 34.1069 17.5599 34.8669 18.3333 35.2136L27.3199 39.2136C27.7466 39.4003 28.2399 39.4003 28.6666 39.2136L37.6533 35.2136C38.4133 34.8803 38.9199 34.1069 38.9199 33.2669C38.9199 32.7203 39.3599 32.2803 39.9066 32.2803C40.4533 32.2803 40.8933 32.7203 40.8933 33.2669C40.8933 34.8936 39.9333 36.3603 38.4533 37.0269L29.4666 41.0269C29.0133 41.2269 28.5066 41.3336 27.9999 41.3336Z" fill="#206247"/>
</svg>
