<svg width="20" height="21" viewBox="0 0 20 21" fill="none" xmlns="http://www.w3.org/2000/svg">
<path d="M14.6084 6.97533C14.55 6.96699 14.4917 6.96699 14.4334 6.97533C13.1417 6.93366 12.1167 5.87533 12.1167 4.57533C12.1167 3.25033 13.1917 2.16699 14.525 2.16699C15.85 2.16699 16.9334 3.24199 16.9334 4.57533C16.925 5.87533 15.9 6.93366 14.6084 6.97533Z" fill="#206247"/>
<path d="M17.3249 12.7503C16.3916 13.3753 15.0833 13.6087 13.8749 13.4503C14.1916 12.767 14.3583 12.0087 14.3666 11.2087C14.3666 10.3753 14.1833 9.58367 13.8333 8.892C15.0666 8.72534 16.3749 8.95867 17.3166 9.58367C18.6333 10.4503 18.6333 11.8753 17.3249 12.7503Z" fill="#206247"/>
<path d="M5.36672 6.97533C5.42505 6.96699 5.48338 6.96699 5.54172 6.97533C6.83338 6.93366 7.85838 5.87533 7.85838 4.57533C7.85838 3.24199 6.78338 2.16699 5.45005 2.16699C4.12505 2.16699 3.05005 3.24199 3.05005 4.57533C3.05005 5.87533 4.07505 6.93366 5.36672 6.97533Z" fill="#206247"/>
<path d="M5.45843 11.2079C5.45843 12.0162 5.63343 12.7829 5.9501 13.4745C4.7751 13.5995 3.5501 13.3495 2.6501 12.7579C1.33343 11.8829 1.33343 10.4578 2.6501 9.58285C3.54176 8.98285 4.8001 8.74118 5.98343 8.87452C5.64176 9.57452 5.45843 10.3662 5.45843 11.2079Z" fill="#206247"/>
<path d="M10.1 13.725C10.0333 13.7167 9.95833 13.7167 9.88333 13.725C8.35 13.675 7.125 12.4167 7.125 10.8667C7.13333 9.28333 8.40833 8 10 8C11.5833 8 12.8667 9.28333 12.8667 10.8667C12.8583 12.4167 11.6417 13.675 10.1 13.725Z" fill="#206247"/>
<path d="M7.39175 15.4502C6.13341 16.2919 6.13341 17.6752 7.39175 18.5085C8.82508 19.4669 11.1751 19.4669 12.6084 18.5085C13.8667 17.6669 13.8667 16.2835 12.6084 15.4502C11.1834 14.4919 8.83341 14.4919 7.39175 15.4502Z" fill="#206247"/>
</svg>
