<svg width="44" height="44" viewBox="0 0 44 44" fill="none" xmlns="http://www.w3.org/2000/svg">
<path d="M27.53 17.77C27.46 17.76 27.39 17.76 27.32 17.77C25.77 17.72 24.54 16.45 24.54 14.89C24.54 13.3 25.83 12 27.43 12C29.02 12 30.32 13.29 30.32 14.89C30.31 16.45 29.08 17.72 27.53 17.77Z" fill="#848484"/>
<path d="M30.7901 24.7004C29.6701 25.4504 28.1001 25.7304 26.6501 25.5404C27.0301 24.7204 27.2301 23.8104 27.2401 22.8504C27.2401 21.8504 27.0201 20.9004 26.6001 20.0704C28.0801 19.8704 29.6501 20.1504 30.7801 20.9004C32.3601 21.9404 32.3601 23.6504 30.7901 24.7004Z" fill="#848484"/>
<path d="M16.4402 17.77C16.5102 17.76 16.5802 17.76 16.6502 17.77C18.2002 17.72 19.4302 16.45 19.4302 14.89C19.4302 13.29 18.1402 12 16.5402 12C14.9502 12 13.6602 13.29 13.6602 14.89C13.6602 16.45 14.8902 17.72 16.4402 17.77Z" fill="#848484"/>
<path d="M16.5501 22.8496C16.5501 23.8196 16.7601 24.7396 17.1401 25.5696C15.7301 25.7196 14.2601 25.4196 13.1801 24.7096C11.6001 23.6596 11.6001 21.9496 13.1801 20.8996C14.2501 20.1796 15.7601 19.8896 17.1801 20.0496C16.7701 20.8896 16.5501 21.8396 16.5501 22.8496Z" fill="#848484"/>
<path d="M22.1198 25.87C22.0398 25.86 21.9498 25.86 21.8598 25.87C20.0198 25.81 18.5498 24.3 18.5498 22.44C18.5598 20.54 20.0898 19 21.9998 19C23.8998 19 25.4398 20.54 25.4398 22.44C25.4298 24.3 23.9698 25.81 22.1198 25.87Z" fill="#848484"/>
<path d="M18.8698 27.9396C17.3598 28.9496 17.3598 30.6096 18.8698 31.6096C20.5898 32.7596 23.4098 32.7596 25.1298 31.6096C26.6398 30.5996 26.6398 28.9396 25.1298 27.9396C23.4198 26.7896 20.5998 26.7896 18.8698 27.9396Z" fill="#848484"/>
</svg>
