<svg width="56" height="56" viewBox="0 0 56 56" fill="none" xmlns="http://www.w3.org/2000/svg">
<rect x="0.375" y="0.375" width="55.25" height="55.25" rx="27.625" fill="#E6F2EC"/>
<rect x="0.375" y="0.375" width="55.25" height="55.25" rx="27.625" stroke="#206247" stroke-width="0.75"/>
<path d="M35.3734 22.3603C35.2801 22.347 35.1867 22.347 35.0934 22.3603C33.0267 22.2937 31.3867 20.6003 31.3867 18.5203C31.3867 16.4003 33.1067 14.667 35.2401 14.667C37.3601 14.667 39.0934 16.387 39.0934 18.5203C39.0801 20.6003 37.4401 22.2937 35.3734 22.3603Z" fill="#206247"/>
<path d="M39.72 31.5996C38.2266 32.5996 36.1333 32.9729 34.2 32.7196C34.7066 31.6262 34.9733 30.4129 34.9866 29.1329C34.9866 27.7996 34.6933 26.5329 34.1333 25.4262C36.1066 25.1596 38.2 25.5329 39.7066 26.5329C41.8133 27.9196 41.8133 30.1996 39.72 31.5996Z" fill="#206247"/>
<path d="M20.5865 22.3603C20.6799 22.347 20.7732 22.347 20.8665 22.3603C22.9332 22.2937 24.5732 20.6003 24.5732 18.5203C24.5732 16.387 22.8532 14.667 20.7199 14.667C18.5999 14.667 16.8799 16.387 16.8799 18.5203C16.8799 20.6003 18.5199 22.2937 20.5865 22.3603Z" fill="#206247"/>
<path d="M20.7335 29.1331C20.7335 30.4265 21.0135 31.6531 21.5202 32.7598C19.6402 32.9598 17.6802 32.5598 16.2402 31.6131C14.1335 30.2131 14.1335 27.9331 16.2402 26.5331C17.6668 25.5731 19.6802 25.1865 21.5735 25.3998C21.0268 26.5198 20.7335 27.7865 20.7335 29.1331Z" fill="#206247"/>
<path d="M28.1599 33.16C28.0532 33.1467 27.9332 33.1467 27.8132 33.16C25.3599 33.08 23.3999 31.0667 23.3999 28.5867C23.4132 26.0533 25.4532 24 27.9999 24C30.5332 24 32.5866 26.0533 32.5866 28.5867C32.5732 31.0667 30.6266 33.08 28.1599 33.16Z" fill="#206247"/>
<path d="M23.8269 35.9195C21.8136 37.2662 21.8136 39.4795 23.8269 40.8129C26.1202 42.3462 29.8802 42.3462 32.1736 40.8129C34.1869 39.4662 34.1869 37.2529 32.1736 35.9195C29.8936 34.3862 26.1336 34.3862 23.8269 35.9195Z" fill="#206247"/>
</svg>
